<svg xmlns="http://www.w3.org/2000/svg" viewBox="0 0 128 128" width="128" height="128" role="img" aria-label="Cognify mark">
  <defs>
    <linearGradient id="cognify-mark-bg" x1="0%" y1="0%" x2="100%" y2="100%">
      <stop offset="0%" stop-color="#6aa3ff" />
      <stop offset="35%" stop-color="#9788ff" />
      <stop offset="70%" stop-color="#b072ff" />
      <stop offset="100%" stop-color="#e77cf0" />
    </linearGradient>
  </defs>
  <rect width="128" height="128" rx="28" fill="url(#cognify-mark-bg)" />
  <g fill="none" stroke="#fdf7e4" stroke-width="3.5" stroke-linecap="round" stroke-linejoin="round">
    <path d="M40 44c-6 0-10 5-10 11 0 3 1 5 3 7-3 2-5 5-5 9 0 7 5 12 12 12 3 0 6-1 8-3" />
    <path d="M88 44c6 0 10 5 10 11 0 3-1 5-3 7 3 2 5 5 5 9 0 7-5 12-12 12-3 0-6-1-8-3" />
    <path d="M50 40c4-5 9-7 14-7s10 2 14 7" />
    <path d="M50 88c4 5 9 7 14 7s10-2 14-7" />
    <path d="M64 33v62" />
    <path d="M40 58c3 2 6 3 10 3M88 58c-3 2-6 3-10 3" />
    <path d="M44 75c3-1 6-2 10-2M84 75c-3-1-6-2-10-2" />
  </g>
  <g fill="#fdf7e4">
    <rect x="49" y="58" width="30" height="12" rx="2" />
    <rect x="45" y="54" width="4" height="20" rx="1" />
    <rect x="79" y="54" width="4" height="20" rx="1" />
    <rect x="42" y="58" width="3" height="12" rx="1" />
    <rect x="83" y="58" width="3" height="12" rx="1" />
  </g>
</svg>
